<?xml version="1.0" standalone="no"?>
<!DOCTYPE svg PUBLIC "-//W3C//DTD SVG 20010904//EN"
 "http://www.w3.org/TR/2001/REC-SVG-20010904/DTD/svg10.dtd">
<svg version="1.0" xmlns="http://www.w3.org/2000/svg"
 width="500.000000pt" height="500.000000pt" viewBox="0 0 500.000000 500.000000"
 preserveAspectRatio="xMidYMid meet">
<metadata>
Created by potrace 1.14, written by Peter Selinger 2001-2017
</metadata>
<g transform="translate(0.000000,500.000000) scale(0.100000,-0.100000)"
fill="#000000" stroke="none">
<path d="M1270 4005 c-10 -12 -10 -15 1 -15 30 0 -8 -19 -42 -21 -26 -2 -35
-7 -32 -16 5 -11 -14 -18 -39 -14 -5 0 -8 -7 -8 -16 0 -9 -8 -26 -17 -37 -17
-20 -17 -20 1 -6 18 14 19 13 13 -2 -8 -22 2 -50 14 -42 5 3 9 10 9 15 0 6 -4
7 -10 4 -5 -3 -10 -2 -10 4 0 5 5 13 11 17 8 5 8 8 0 14 -9 5 -8 10 1 18 10 8
18 8 28 0 12 -8 11 -9 -4 -4 -14 5 -17 2 -12 -10 3 -8 6 -18 6 -20 0 -2 8 4
18 14 12 11 16 21 10 29 -7 8 -3 10 11 6 12 -3 21 -1 21 6 0 6 7 11 16 11 8 0
12 5 9 10 -3 6 3 10 15 10 13 0 19 -4 14 -11 -5 -8 -1 -8 13 0 13 7 23 7 30 0
6 -6 16 -4 29 8 11 10 18 17 15 16 -2 -2 -10 5 -17 15 -12 16 -13 16 -14 0 0
-9 -5 -20 -12 -24 -8 -5 -9 -2 -4 11 5 14 4 16 -7 7 -16 -14 -27 -6 -27 20 0
22 -13 23 -30 3z m-30 -51 c0 -8 -19 -13 -24 -6 -3 5 1 9 9 9 8 0 15 -2 15 -3z"/>
<path d="M1400 3971 c0 -6 9 -9 19 -8 11 0 17 5 15 9 -7 11 -34 10 -34 -1z"/>
<path d="M1920 3921 c-14 -4 -32 -7 -41 -6 -12 2 -15 -3 -12 -16 3 -11 -1 -21
-11 -25 -9 -3 -13 -10 -10 -15 3 -5 -2 -9 -10 -9 -18 0 -21 -16 -5 -26 8 -4 7
-9 -2 -16 -11 -7 -9 -8 5 -4 13 4 17 2 13 -7 -4 -10 3 -14 21 -13 15 1 26 6
25 12 -1 6 4 11 12 11 7 0 11 -5 9 -11 -3 -7 12 -10 42 -9 37 1 45 -1 40 -13
-3 -9 -6 -18 -6 -20 0 -3 -5 -2 -10 1 -6 4 -10 3 -9 -2 1 -4 1 -17 0 -28 l-2
-20 -15 20 c-16 19 -16 19 -12 -7 3 -15 1 -25 -3 -22 -5 3 -9 0 -9 -5 0 -6 -7
-11 -16 -11 -8 0 -12 -4 -9 -10 3 -6 -1 -7 -9 -4 -9 3 -14 11 -13 16 1 6 -4
12 -11 14 -7 1 -8 0 -3 -2 7 -4 7 -14 0 -31 -8 -22 -8 -24 5 -14 12 10 14 9 9
-8 -3 -12 -8 -19 -12 -17 -3 2 -6 -11 -7 -30 0 -19 4 -34 10 -34 6 0 4 -4 -4
-9 -8 -6 -19 -7 -25 -3 -5 3 -4 -1 2 -10 7 -8 11 -17 8 -20 -3 -2 2 -5 10 -5
12 0 12 3 2 15 -10 13 -9 14 9 4 12 -6 25 -8 29 -4 5 4 5 1 1 -6 -5 -9 2 -11
31 -8 21 2 47 7 59 11 29 9 52 -19 34 -40 -7 -9 -19 -14 -27 -11 -7 3 -13 1
-13 -4 0 -6 5 -10 10 -10 6 0 10 -5 10 -11 0 -5 -5 -7 -10 -4 -6 4 -5 -5 2
-20 10 -22 17 -26 40 -23 20 3 25 1 18 -6 -12 -12 -13 -27 -2 -25 19 3 33 -2
27 -11 -8 -13 25 -61 38 -53 6 3 7 1 3 -6 -4 -6 -12 -9 -17 -6 -5 4 -9 2 -9
-4 0 -5 5 -13 10 -16 6 -3 10 -12 10 -18 0 -7 -4 -6 -11 3 -9 13 -10 13 -6 0
2 -8 13 -14 23 -13 16 1 17 0 4 -10 -8 -7 -17 -19 -19 -27 -13 -53 -13 -55 -2
-40 7 9 11 10 11 3 0 -6 -4 -15 -10 -18 -5 -3 -10 -11 -10 -16 0 -6 4 -8 9 -5
15 10 6 -22 -12 -42 -9 -10 -14 -23 -10 -27 5 -5 1 -4 -7 2 -17 13 -73 6 -64
-8 4 -8 -8 -13 -27 -11 -3 1 -4 -10 -1 -23 2 -14 8 -25 13 -25 17 0 9 -19 -12
-25 -17 -6 -18 -9 -7 -23 11 -13 11 -14 -1 -7 -10 5 -12 4 -7 -3 4 -7 4 -17 0
-23 -4 -8 -9 -7 -15 2 -7 12 -9 11 -10 -1 0 -8 -2 -23 -4 -32 -2 -10 0 -17 3
-17 19 3 22 -3 12 -23 -10 -21 -10 -21 3 -5 16 20 83 32 92 17 3 -6 14 -10 24
-10 10 0 21 -9 24 -20 3 -11 1 -18 -4 -14 -5 3 -6 -3 -2 -13 4 -10 12 -21 19
-25 7 -5 11 -16 10 -25 -2 -10 -1 -12 1 -5 6 18 33 15 33 -4 0 -8 -7 -22 -15
-30 -8 -9 -15 -26 -15 -40 0 -27 -17 -33 -27 -8 -3 8 -12 13 -19 10 -8 -3 -14
-1 -14 4 0 6 -3 9 -7 8 -5 -1 -19 2 -32 6 -17 6 -20 10 -11 16 8 5 4 8 -12 7
-20 -2 -25 -7 -23 -23 1 -12 -6 -26 -17 -33 -11 -7 -18 -7 -18 -1 0 5 5 10 10
10 6 0 10 10 9 23 0 21 -1 21 -9 2 -7 -19 -8 -19 -15 -2 -5 12 -15 17 -26 14
-23 -6 -24 6 -4 27 8 8 15 18 15 23 -1 4 -8 -1 -18 -12 -23 -27 -54 -32 -45
-8 5 15 3 15 -10 -2 -8 -11 -14 -23 -11 -26 2 -3 -8 -4 -21 -1 -15 2 -25 0
-25 -7 0 -7 -4 -9 -10 -6 -5 3 -10 1 -10 -5 0 -6 -5 -8 -10 -5 -6 4 -18 1 -27
-7 -15 -11 -16 -10 -11 9 6 21 4 22 -48 18 -45 -3 -54 -1 -59 15 -3 10 -15 22
-25 25 -11 3 -19 9 -18 13 4 14 -27 52 -42 52 -8 0 -21 -9 -28 -20 -14 -23
-52 -27 -52 -5 0 12 -6 11 -35 -5 -24 -14 -33 -15 -29 -5 3 7 -4 19 -16 25
-15 8 -20 8 -16 1 4 -6 3 -18 -2 -27 -6 -11 -9 -2 -8 30 0 50 -20 97 -39 90
-7 -3 -40 4 -73 15 -70 24 -100 26 -157 10 -37 -10 -38 -12 -20 -25 10 -8 13
-14 7 -14 -7 0 -12 -7 -12 -15 0 -7 -8 -19 -17 -24 -17 -10 -17 -12 2 -28 11
-10 18 -17 16 -16 -8 5 -42 -19 -37 -25 11 -10 37 -11 30 -1 -5 8 9 13 28 10
5 0 7 2 5 7 -1 4 3 9 8 10 6 2 18 8 28 13 12 7 17 6 15 -3 -2 -8 5 -12 17 -11
11 1 14 0 7 -3 -11 -5 -10 -8 1 -18 11 -9 9 -15 -11 -35 -15 -13 -23 -17 -19
-8 3 9 -1 18 -9 21 -9 4 -12 2 -8 -5 4 -8 0 -7 -15 0 -17 10 -21 9 -21 -4 0
-22 -38 -34 -66 -21 -12 6 -19 13 -16 16 13 9 11 28 -3 40 -12 10 -13 8 -10
-9 2 -12 0 -19 -6 -16 -5 4 -9 11 -9 16 0 6 -7 18 -16 27 -15 15 -16 14 -9 -8
4 -14 10 -31 12 -38 4 -8 0 -10 -11 -6 -9 3 -16 12 -16 20 0 8 -5 14 -11 14
-14 0 -41 68 -33 83 4 7 4 9 -1 5 -4 -4 -14 0 -20 9 -10 13 -16 15 -26 6 -8
-6 -38 -16 -67 -22 -49 -10 -56 -9 -83 10 -16 11 -29 29 -29 40 0 11 -4 18 -9
14 -5 -3 -12 -1 -16 5 -4 6 -10 8 -14 5 -12 -7 -23 57 -12 68 15 15 45 3 58
-23 l13 -25 1 25 c3 52 17 93 29 85 5 -3 10 9 12 27 3 29 7 33 32 34 16 1 36
10 45 22 18 24 79 52 114 52 14 0 65 13 114 30 52 17 104 28 122 25 17 -2 31
1 31 6 0 6 4 8 9 4 12 -7 24 12 27 41 2 17 -2 21 -12 17 -8 -3 -14 -1 -12 5 2
5 0 10 -4 11 -5 1 -7 -1 -5 -4 1 -2 -7 -11 -18 -19 l-20 -15 20 -15 c11 -8 15
-16 9 -16 -13 0 -46 34 -40 41 3 2 -19 20 -47 39 -29 20 -59 50 -68 67 -9 17
-23 43 -32 57 -10 14 -17 34 -17 45 0 11 -4 23 -10 26 -5 3 -10 14 -10 23 0
23 -36 46 -46 30 -4 -6 -3 -8 3 -5 6 4 13 -1 15 -11 5 -17 3 -17 -28 -3 -19 8
-34 19 -34 25 0 5 -11 -3 -24 -17 -16 -17 -26 -22 -29 -14 -3 7 -6 5 -6 -5 -1
-10 -11 -23 -23 -29 -19 -9 -21 -9 -11 2 18 19 16 29 -4 23 -10 -4 -6 2 9 13
24 16 25 20 12 37 -14 19 -59 32 -48 14 4 -5 12 -7 19 -4 24 9 24 -21 0 -32
-20 -9 -23 -9 -18 3 3 8 1 15 -5 15 -6 0 -9 -11 -8 -24 3 -28 -15 -41 -33 -23
-8 8 -11 8 -11 0 0 -7 -10 -10 -21 -8 -12 3 -19 1 -15 -2 8 -8 -45 -43 -56
-37 -8 5 -12 -11 -9 -30 1 -5 -6 -3 -15 5 -16 13 -16 12 -6 -8 7 -12 17 -25
22 -28 6 -4 7 -11 4 -17 -4 -6 2 -6 15 1 18 10 21 9 21 -6 0 -37 -34 -54 -57
-28 -4 4 -2 5 5 1 6 -4 12 -3 12 2 0 5 -11 14 -25 20 -14 6 -25 8 -25 3 0 -4
-7 -8 -15 -8 -11 0 -12 4 -4 13 6 8 6 14 0 18 -5 4 -13 1 -16 -4 -5 -7 -12 -5
-21 7 -12 16 -13 16 -8 1 5 -14 1 -16 -20 -12 -18 3 -28 -1 -32 -11 -3 -8 -10
-13 -15 -10 -4 3 -6 12 -2 21 3 9 -5 6 -20 -8 -20 -18 -23 -26 -14 -37 9 -12
9 -13 0 -7 -7 4 -13 3 -13 -3 0 -5 -9 -8 -20 -6 -11 2 -18 0 -15 -5 3 -5 -4
-14 -16 -21 l-22 -11 22 -12 c12 -7 18 -15 15 -19 -4 -4 -2 -7 5 -7 7 0 9 -5
5 -12 -5 -8 -2 -9 9 -5 10 4 17 1 17 -6 0 -9 3 -8 9 1 10 17 12 17 58 -8 42
-22 68 -26 57 -8 -4 6 -3 8 3 5 5 -3 9 -22 8 -42 0 -19 3 -35 7 -35 14 0 3
-41 -15 -57 -21 -19 -69 -31 -50 -12 13 13 5 52 -9 43 -5 -4 -5 -10 1 -17 6
-8 1 -18 -17 -31 -27 -20 -27 -20 -9 0 9 12 17 24 17 27 0 4 -8 7 -17 7 -15 0
-16 2 -3 10 9 6 10 10 3 10 -6 0 -15 -5 -18 -10 -4 -6 -10 -8 -15 -5 -5 3 -12
0 -16 -6 -5 -8 -3 -9 6 -4 10 6 12 4 7 -7 -3 -9 0 -21 6 -27 9 -9 8 -11 -6 -6
-10 4 -17 2 -17 -5 0 -6 -5 -8 -10 -5 -6 4 -7 12 -4 18 4 7 3 8 -1 4 -15 -13
-14 -39 1 -68 16 -31 4 -46 -23 -30 -10 6 -14 11 -10 11 4 0 3 9 -3 20 -6 11
-15 18 -21 15 -5 -4 -6 -12 -3 -18 4 -7 -8 2 -26 18 -18 17 -29 24 -25 16 6
-11 4 -13 -10 -7 -13 5 -15 3 -8 -6 12 -15 -2 -78 -18 -78 -6 0 -7 -4 -4 -10
8 -14 -1 -13 -25 2 -15 9 -25 10 -37 2 -28 -18 -26 -32 4 -26 25 5 25 6 8 13
-19 7 -19 8 3 8 25 1 29 -20 9 -41 -8 -7 -12 -19 -9 -26 2 -6 -3 -12 -12 -12
-9 0 -16 6 -16 13 0 6 -5 4 -11 -6 -5 -9 -8 -21 -5 -25 3 -5 -1 -9 -8 -9 -8 0
-12 7 -9 16 4 14 3 14 -6 1 -7 -8 -16 -24 -22 -35 -10 -19 -9 -19 5 -2 14 18
15 17 21 -3 4 -12 9 -19 12 -16 3 3 19 -2 35 -10 23 -12 33 -13 44 -3 14 11
20 1 14 -26 -1 -5 2 -7 6 -3 4 4 13 0 21 -10 11 -15 12 -15 7 -1 -3 10 0 20 6
24 6 3 9 1 8 -6 -2 -6 3 -14 11 -17 9 -3 11 0 6 9 -5 8 -4 11 0 6 5 -4 10 -16
12 -27 2 -14 -2 -18 -15 -13 -14 5 -13 3 3 -10 16 -13 17 -17 5 -18 -8 -1 -19
0 -25 1 -5 1 0 -9 13 -22 21 -24 22 -25 4 -41 -20 -18 -48 -8 -40 14 7 19 -8
46 -32 59 -15 8 -18 8 -14 -3 3 -8 -2 -17 -11 -21 -9 -3 -15 -11 -14 -18 3
-26 -1 -49 -9 -44 -4 2 -9 -16 -10 -40 -2 -51 -22 -83 -66 -104 l-31 -15 -3
-123 c-2 -83 1 -121 8 -117 5 3 10 -1 10 -10 0 -10 -5 -13 -13 -9 -7 4 -9 3
-4 -2 5 -5 13 -9 18 -9 5 0 9 -3 9 -7 0 -5 0 -15 0 -23 0 -9 -6 -12 -15 -9
-13 5 -15 -36 -15 -335 0 -247 3 -340 11 -339 6 2 14 -3 16 -9 3 -7 -2 -13
-11 -13 -14 0 -16 -45 -16 -440 l0 -440 2500 0 2500 0 -1 1088 c-1 598 -4
1078 -6 1068 -3 -10 -8 -14 -12 -9 -3 6 -15 13 -27 17 -19 6 -21 3 -19 -29 1
-22 -3 -34 -9 -31 -6 2 -10 9 -8 15 1 6 -3 11 -9 11 -7 0 -9 -9 -6 -21 4 -16
3 -18 -9 -8 -17 14 -18 56 -1 62 6 3 3 6 -8 6 -19 1 -19 1 0 15 25 17 91 16
88 -1 -2 -7 4 -10 12 -6 13 4 15 27 14 129 0 68 -5 124 -10 124 -4 0 -5 -7 -2
-17 5 -12 3 -14 -8 -8 -12 8 -12 6 0 -8 11 -14 11 -18 -5 -23 -11 -4 -23 -9
-29 -12 -5 -3 -7 -2 -3 3 4 4 3 14 -2 20 -8 9 -6 14 5 19 8 3 15 10 15 16 0 5
-9 2 -20 -8 -11 -9 -30 -20 -43 -23 -12 -3 -21 -10 -20 -16 1 -5 -5 -10 -13
-10 -10 0 -11 4 -4 11 13 13 13 29 0 21 -5 -3 -10 1 -10 9 0 27 -20 17 -34
-16 -19 -46 -25 -115 -12 -128 8 -8 7 -10 -5 -5 -13 5 -18 -2 -23 -27 -3 -18
-4 -43 -1 -56 2 -13 -5 -39 -15 -58 -11 -19 -20 -41 -20 -50 0 -8 -4 -13 -9
-10 -5 3 -11 -1 -15 -9 -6 -16 -36 -21 -36 -6 0 5 -11 8 -24 7 -27 -1 -25 -16
2 -17 14 0 13 -2 -3 -9 -11 -5 -15 -9 -9 -9 7 -1 14 -8 18 -16 4 -12 0 -14
-19 -11 -14 3 -25 0 -25 -5 0 -5 10 -9 23 -9 12 0 17 -4 12 -8 -12 -8 -13 -27
-3 -37 9 -9 -2 -36 -12 -30 -5 3 -11 1 -15 -5 -4 -6 -10 -8 -15 -5 -4 3 -10
-2 -14 -10 -3 -8 -1 -15 4 -15 6 0 9 -3 9 -7 -1 -5 -1 -10 1 -13 1 -3 3 -18 5
-35 3 -21 1 -25 -5 -15 -8 13 -11 13 -26 -1 -12 -13 -13 -18 -3 -24 8 -5 10
-4 5 3 -5 8 -1 10 10 5 11 -4 13 -8 6 -11 -7 -2 -12 -10 -12 -18 0 -10 5 -12
13 -8 8 5 8 2 -2 -9 -7 -9 -9 -17 -4 -17 5 0 9 -10 10 -22 0 -13 6 -38 11 -55
8 -24 7 -33 0 -33 -6 0 -9 -3 -5 -6 3 -4 0 -19 -8 -35 -8 -15 -15 -37 -15 -49
0 -11 -3 -20 -8 -20 -4 0 -6 -18 -4 -40 3 -28 0 -40 -9 -40 -10 0 -10 -3 -1
-12 23 -23 18 -36 -41 -99 -18 -20 -27 -40 -26 -57 4 -59 -1 -84 -15 -79 -10
4 -13 1 -10 -8 4 -9 -3 -17 -21 -21 -15 -4 -54 -20 -86 -35 -33 -16 -64 -29
-69 -29 -5 0 -25 -8 -45 -17 -29 -14 -40 -15 -56 -5 -10 7 -19 8 -19 3 0 -15
-52 -30 -110 -31 -20 -1 -70 7 -99 16 -14 4 -22 3 -18 -2 3 -5 -7 -10 -21 -10
-61 -3 -102 -8 -102 -14 0 -3 -8 -6 -17 -7 -10 -1 -34 -3 -55 -5 -20 -2 -34 1
-31 6 4 5 -7 6 -26 3 -20 -4 -30 -3 -26 3 3 6 -1 7 -9 4 -9 -3 -16 -2 -16 3 0
5 -16 8 -35 7 -26 -2 -35 1 -35 12 0 10 -5 12 -12 7 -18 -11 -39 -13 -33 -3 3
5 -3 14 -14 19 -25 14 -44 14 -36 1 4 -6 11 -7 17 -4 7 5 8 2 4 -5 -6 -9 -12
-9 -25 3 -20 19 -36 9 -19 -11 26 -32 -6 -22 -78 23 -84 54 -300 246 -296 263
1 6 -8 15 -21 20 -31 12 -167 180 -167 208 0 4 -9 19 -20 33 -16 20 -19 21
-14 5 4 -11 12 -27 18 -35 9 -11 6 -11 -12 2 -12 8 -53 56 -90 105 -86 114
-136 173 -149 173 -15 0 -44 36 -36 44 4 4 -1 4 -12 0 -17 -7 -18 -5 -8 7 10
12 8 15 -10 16 -17 2 -19 0 -7 -7 11 -7 11 -10 2 -10 -10 0 -10 -3 0 -14 7 -8
18 -11 23 -8 6 3 7 1 2 -3 -13 -15 -44 -15 -45 0 -1 8 -3 22 -4 30 -1 13 -5
12 -22 -2 -11 -10 -27 -25 -34 -33 -10 -11 -15 -12 -18 -2 -3 6 -13 12 -22 12
-15 0 -15 -2 -2 -10 11 -7 11 -10 2 -10 -7 0 -10 -5 -7 -10 4 -6 10 -8 15 -5
4 3 -1 -13 -12 -36 -19 -39 -19 -41 -1 -54 17 -13 17 -13 -2 -12 -12 1 -19 -3
-17 -11 1 -7 -4 -19 -11 -27 -12 -12 -16 -10 -27 10 -7 14 -16 22 -20 20 -4
-2 -7 1 -8 8 -3 39 -10 68 -17 75 -4 4 -5 0 0 -8 4 -8 -3 -5 -16 7 -17 17 -25
39 -30 80 -9 77 -17 107 -29 111 -6 2 -8 7 -5 12 3 4 -2 11 -11 14 -10 4 -13
2 -8 -7 4 -6 -3 -2 -15 10 -30 31 -27 36 17 29 34 -6 36 -5 18 9 -11 8 -16 15
-10 15 5 0 1 5 -8 11 -10 5 -18 21 -18 34 0 13 -5 25 -11 27 -15 5 -2 48 15
48 8 0 12 31 13 111 0 65 5 115 12 122 25 25 143 13 181 -18 23 -19 64 -30 55
-15 -6 9 -2 9 15 0 12 -7 20 -8 16 -2 -3 5 -1 23 4 40 4 18 5 34 0 37 -15 9
-40 -7 -40 -26 0 -26 -12 -24 -44 8 -23 23 -26 33 -22 70 4 40 2 45 -25 59
-24 12 -28 19 -24 43 3 21 -3 39 -25 70 -31 42 -44 49 -55 31 -10 -15 -35 -12
-35 5 0 8 5 15 11 15 5 0 7 -4 4 -10 -9 -15 4 -12 21 5 16 15 10 40 -6 30 -21
-13 -46 32 -49 85 -1 30 -4 57 -7 61 -2 5 -7 41 -11 81 -3 40 -12 83 -20 95
-8 12 -16 29 -17 38 -1 8 -6 14 -12 13 -5 -2 -8 -6 -7 -9 1 -4 -9 -6 -23 -6
-27 0 -49 29 -40 53 3 8 1 14 -3 14 -8 0 -35 57 -33 70 0 3 -14 5 -31 5 -21
-1 -37 6 -46 18 -13 18 -14 18 -30 -7 -16 -23 -19 -25 -37 -11 -18 14 -18 14
2 9 14 -4 23 0 27 10 4 9 5 16 4 15 -1 0 -13 -4 -27 -8z m-65 -91 c3 -6 -1 -7
-9 -4 -18 7 -21 14 -7 14 6 0 13 -4 16 -10z m-990 -250 c3 -6 -4 -10 -17 -10
-18 0 -20 2 -8 10 19 12 18 12 25 0z m-421 -148 c3 -5 -1 -9 -9 -9 -8 0 -12 4
-9 9 3 4 7 8 9 8 2 0 6 -4 9 -8z m1598 -14 c-11 -11 -32 -3 -32 12 0 4 9 6 21
3 13 -4 17 -9 11 -15z m-1702 -52 c0 -2 -8 -10 -17 -17 -16 -13 -17 -12 -4 4
13 16 21 21 21 13z m860 -78 c0 -23 -2 -22 -22 1 -16 18 -15 20 3 18 11 -1 19
-9 19 -19z m-795 -228 c-3 -5 -12 -10 -18 -10 -7 0 -6 4 3 10 19 12 23 12 15
0z m4512 -74 c-8 -8 -17 -12 -21 -9 -3 3 2 12 12 19 22 16 29 9 9 -10z m-3687
-157 c0 -5 -4 -9 -10 -9 -5 0 -10 7 -10 16 0 8 5 12 10 9 6 -3 10 -10 10 -16z
m10 -28 c0 -3 4 -12 9 -20 7 -10 13 -11 30 -1 16 8 26 8 35 1 7 -6 16 -8 19
-4 4 3 7 -5 7 -19 0 -13 -3 -28 -7 -31 -9 -9 -44 23 -37 34 3 5 -2 6 -10 3 -8
-3 -17 -12 -20 -20 -3 -9 -10 -12 -16 -9 -5 3 -10 2 -10 -4 0 -6 -8 -7 -17 -4
-11 4 -13 8 -5 11 10 3 10 7 1 18 -6 8 -15 12 -18 9 -8 -4 -12 22 -6 42 4 11
45 6 45 -6z m3605 9 c3 -6 -1 -7 -9 -4 -18 7 -21 14 -7 14 6 0 13 -4 16 -10z
m-4565 -14 c0 -3 -4 -8 -10 -11 -5 -3 -10 -1 -10 4 0 6 5 11 10 11 6 0 10 -2
10 -4z m542 -48 c-6 -6 -7 0 -4 19 5 21 7 23 10 9 2 -10 0 -22 -6 -28z m89 25
c12 -14 12 -15 0 -9 -8 5 -16 3 -22 -5 -6 -10 -8 -7 -6 9 2 26 10 28 28 5z
m614 -17 c-13 -19 -13 -25 -3 -29 22 -7 1 -19 -21 -12 -12 3 -21 13 -21 21 0
9 -5 12 -12 8 -7 -4 -8 -3 -4 4 4 7 18 12 31 12 13 0 27 5 30 10 3 6 8 10 11
10 2 0 -3 -11 -11 -24z m-1350 -26 c3 -5 1 -10 -4 -10 -6 0 -11 5 -11 10 0 6
2 10 4 10 3 0 8 -4 11 -10z m342 -44 c-4 -9 -10 -16 -16 -16 -11 0 -22 40 -14
53 9 14 36 -20 30 -37z m386 18 c-4 -10 -9 -12 -15 -6 -12 12 -1 35 12 27 5
-3 6 -13 3 -21z m673 11 c4 -8 14 -15 24 -15 11 0 22 -6 26 -12 4 -7 4 -10 -1
-6 -4 4 -14 1 -22 -7 -20 -21 -60 -1 -42 21 8 10 8 14 0 14 -6 0 -11 5 -11 10
0 16 20 12 26 -5z m354 -38 c0 -5 -7 -7 -15 -3 -8 3 -15 0 -15 -6 0 -6 -3 -9
-6 -5 -3 3 -4 10 0 15 7 12 36 11 36 -1z m-1007 -33 c-1 -5 3 -14 8 -21 7 -7
6 -14 -1 -18 -6 -4 -15 -18 -21 -32 -12 -32 -28 -21 -23 17 3 17 1 30 -5 30
-15 0 -14 27 2 33 18 6 42 1 40 -9z m617 6 c0 -5 -2 -10 -4 -10 -3 0 -8 5 -11
10 -3 6 -1 10 4 10 6 0 11 -4 11 -10z m-1315 -10 c3 -6 -1 -7 -9 -4 -18 7 -21
14 -7 14 6 0 13 -4 16 -10z m1686 -12 c-5 -13 -15 -21 -23 -19 -7 2 -18 4 -25
4 -7 0 -15 7 -17 14 -3 8 -1 11 4 8 6 -3 10 -1 10 4 0 6 13 11 30 11 26 0 28
-2 21 -22z m-346 -16 c-3 -3 -11 0 -18 7 -9 10 -8 11 6 5 10 -3 15 -9 12 -12z
m255 5 c0 -7 -9 -13 -20 -13 -20 0 -25 7 -13 19 11 12 33 8 33 -6z m-1660 -31
c0 -14 -4 -28 -10 -31 -6 -4 -10 7 -10 24 0 17 5 31 10 31 6 0 10 -11 10 -24z
m1690 8 c0 -3 -7 -12 -16 -21 -12 -13 -18 -13 -27 -3 -8 9 -8 11 -1 7 7 -4 14
0 18 8 5 14 26 22 26 9z m130 -13 c0 -5 -8 -12 -17 -16 -26 -10 -69 -17 -62
-10 4 3 17 8 29 10 13 3 28 9 34 15 12 12 16 13 16 1z m-65 -41 c13 0 27 -4
30 -10 3 -6 -1 -7 -10 -4 -8 4 -21 1 -29 -5 -7 -6 -16 -8 -19 -5 -3 4 -12 -5
-18 -20 -7 -15 -20 -26 -31 -26 -11 0 -17 -4 -14 -9 3 -5 -1 -11 -9 -15 -9 -3
-15 0 -15 9 0 17 -12 19 -26 5 -6 -6 -10 -3 -10 10 0 11 6 19 12 17 7 -1 13 2
12 7 0 9 22 26 35 26 4 0 7 -5 7 -11 0 -5 -6 -7 -12 -3 -9 5 -9 2 1 -9 15 -18
26 -23 16 -7 -3 6 1 10 10 10 9 0 13 5 10 10 -3 6 1 10 9 10 9 0 15 3 15 8 -1
4 0 14 1 22 1 11 3 11 7 3 2 -7 15 -13 28 -13z m-448 -5 c3 -9 3 -19 -1 -22
-7 -7 -36 16 -36 28 0 15 30 10 37 -6z m518 5 c-3 -5 -11 -10 -16 -10 -6 0 -7
5 -4 10 3 6 11 10 16 10 6 0 7 -4 4 -10z m-1405 -30 c0 -9 -31 -23 -37 -17 -2
2 -1 11 3 20 5 15 34 13 34 -3z m69 -7 c15 -28 -5 -54 -39 -51 -36 3 -46 24
-24 49 21 24 50 24 63 2z m891 -3 c0 -5 -7 -10 -15 -10 -8 0 -15 5 -15 10 0 6
7 10 15 10 8 0 15 -4 15 -10z m979 -41 c-8 -5 1 -10 24 -14 66 -13 51 -24 -20
-16 -7 0 -17 11 -24 22 -7 13 -7 19 -1 15 6 -3 13 -2 17 4 3 5 1 10 -6 10 -8
0 -7 5 2 17 13 15 14 14 17 -7 2 -12 -2 -26 -9 -31z m2184 38 c9 -23 -8 -40
-22 -23 -13 15 -7 36 9 36 4 0 10 -6 13 -13z m-4558 -17 c0 -7 -5 -15 -10 -17
-6 -2 -11 6 -11 17 0 11 5 19 11 17 5 -2 10 -10 10 -17z m669 -11 c-3 -5 -10
-7 -15 -3 -5 3 -7 10 -3 15 3 5 10 7 15 3 5 -3 7 -10 3 -15z m1286 11 c0 -5
-4 -10 -10 -10 -5 0 -10 5 -10 10 0 6 5 10 10 10 6 0 10 -4 10 -10z m-1250
-22 c0 -16 -3 -19 -11 -11 -6 6 -8 16 -5 22 11 17 16 13 16 -11z m-80 -32
c-13 -13 -35 7 -25 24 5 8 11 8 21 -1 10 -8 12 -15 4 -23z m1340 14 c0 -5 -4
-10 -10 -10 -5 0 -10 5 -10 10 0 6 5 10 10 10 6 0 10 -4 10 -10z m-1225 -21
c-8 -12 -35 -12 -35 0 0 11 22 20 33 14 4 -2 5 -9 2 -14z m1585 17 c0 -3 -4
-8 -10 -11 -5 -3 -10 -1 -10 4 0 6 5 11 10 11 6 0 10 -2 10 -4z m-1950 -13 c0
-5 -5 -15 -10 -23 -7 -12 -9 -10 -7 8 1 19 17 33 17 15z m2030 -36 c0 -4 -6
-2 -14 5 -8 7 -12 17 -9 22 5 8 23 -12 23 -27z m-610 13 c-20 -13 -50 -13 -50
0 0 6 15 10 33 10 24 0 28 -3 17 -10z m530 0 c0 -5 -2 -10 -4 -10 -3 0 -8 5
-11 10 -3 6 -1 10 4 10 6 0 11 -4 11 -10z m-684 -16 c-3 -9 -6 -18 -6 -20 0
-3 -4 -3 -9 0 -5 4 -7 -3 -4 -14 3 -11 0 -20 -6 -20 -5 0 -8 -6 -6 -12 3 -7 1
-26 -4 -43 l-8 -30 -16 38 c-20 46 -13 97 14 97 10 0 21 5 24 10 10 16 28 11
21 -6z m2884 6 c0 -5 -2 -10 -4 -10 -3 0 -8 5 -11 10 -3 6 -1 10 4 10 6 0 11
-4 11 -10z m-2660 -9 c0 -5 -7 -11 -15 -15 -9 -3 -15 0 -15 9 0 8 7 15 15 15
8 0 15 -4 15 -9z m450 -1 c8 -5 11 -10 5 -10 -5 0 -17 5 -25 10 -8 5 -10 10
-5 10 6 0 17 -5 25 -10z m2293 -14 c3 -8 3 -17 0 -20 -9 -9 -34 15 -27 25 8
13 21 11 27 -5z m-3966 -26 c-7 -8 -18 -20 -26 -26 -11 -8 -11 -13 -2 -18 6
-4 20 -2 29 6 15 12 16 11 4 -4 -7 -9 -9 -18 -5 -20 4 -3 2 -3 -4 -2 -8 2 -13
-7 -13 -21 0 -18 -5 -25 -20 -25 -11 0 -20 -5 -20 -11 0 -5 5 -7 10 -4 6 3 10
1 10 -4 0 -19 -20 -12 -28 10 -8 20 -9 20 -23 3 -8 -11 -9 -15 -1 -10 8 5 12
-2 12 -23 0 -23 -5 -31 -17 -31 -10 0 -14 4 -8 8 17 12 14 28 -8 42 -20 12
-21 12 -8 -3 16 -20 7 -52 -11 -41 -10 6 -9 3 0 -9 22 -26 7 -52 -32 -54 -22
-1 -34 3 -32 10 1 7 -2 3 -7 -8 -12 -27 -53 -46 -79 -36 -19 7 -18 8 11 20 17
8 31 17 31 22 0 14 -18 11 -23 -3 -2 -7 -8 -10 -12 -6 -4 4 -2 16 6 25 13 16
12 17 -3 5 -10 -8 -19 -9 -22 -3 -4 5 2 14 11 20 10 6 14 11 10 11 -5 0 -1 7
7 16 9 8 20 12 26 9 5 -3 10 -1 10 4 0 6 -7 11 -15 11 -8 0 -15 8 -15 19 0 14
6 17 25 13 15 -2 22 -9 18 -16 -3 -6 5 -1 19 12 13 12 30 22 36 22 7 0 12 6
12 14 0 14 43 36 77 39 13 0 19 6 16 14 -8 20 16 43 43 41 19 -2 21 -5 11 -18z
m1113 10 c0 -5 -4 -10 -10 -10 -5 0 -10 5 -10 10 0 6 5 10 10 10 6 0 10 -4 10
-10z m36 -2 c4 -6 2 -14 -4 -16 -7 -2 -12 -10 -12 -18 0 -8 -7 -14 -15 -14
-20 0 -19 19 1 27 8 3 13 12 10 19 -7 17 10 19 20 2z m90 -20 c-10 -6 -20 -7
-24 -3 -9 8 20 25 31 18 5 -3 2 -10 -7 -15z m-366 2 c0 -5 -4 -10 -10 -10 -5
0 -10 5 -10 10 0 6 5 10 10 10 6 0 10 -4 10 -10z m777 -42 c-3 -8 -6 -5 -6 6
-1 11 2 17 5 13 3 -3 4 -12 1 -19z m-2020 -11 c0 -8 -6 -14 -14 -14 -9 0 -10
4 -2 14 6 7 12 13 14 13 1 0 2 -6 2 -13z m1131 -19 c-2 -6 -10 -14 -16 -16 -7
-2 -10 2 -6 12 7 18 28 22 22 4z m602 2 c0 -5 -2 -10 -4 -10 -3 0 -8 5 -11 10
-3 6 -1 10 4 10 6 0 11 -4 11 -10z m-1768 -45 c6 -7 9 -7 8 0 -4 19 0 35 9 35
5 0 8 -6 7 -12 -6 -44 -47 -43 -45 1 1 20 2 22 6 6 3 -11 9 -24 15 -30z m68
24 c0 -5 -4 -9 -10 -9 -5 0 -10 7 -10 16 0 8 5 12 10 9 6 -3 10 -10 10 -16z
m1420 -9 c0 -5 -4 -10 -10 -10 -5 0 -10 5 -10 10 0 6 5 10 10 10 6 0 10 -4 10
-10z m130 -5 c0 -8 -4 -15 -10 -15 -5 0 -10 7 -10 15 0 8 5 15 10 15 6 0 10
-7 10 -15z m415 -25 c3 -5 1 -10 -4 -10 -6 0 -11 5 -11 10 0 6 2 10 4 10 3 0
8 -4 11 -10z m-1981 -9 c3 -5 -1 -11 -9 -14 -9 -4 -12 -1 -8 9 6 16 10 17 17
5z m-9 -65 c0 -17 -4 -22 -17 -18 -20 5 -24 38 -5 45 16 6 20 1 22 -27z m1991
9 c0 -28 -13 -33 -23 -9 -4 12 7 29 23 34 0 0 0 -11 0 -25z m119 15 c3 -5 1
-10 -4 -10 -6 0 -11 5 -11 10 0 6 2 10 4 10 3 0 8 -4 11 -10z m-2030 -50 c3
-5 -1 -10 -9 -10 -8 0 -18 5 -21 10 -3 6 1 10 9 10 8 0 18 -4 21 -10z m75 -56
c0 -8 -4 -12 -10 -9 -5 3 -10 10 -10 16 0 5 5 9 10 9 6 0 10 -7 10 -16z m1815
-14 c3 -5 1 -10 -4 -10 -6 0 -11 5 -11 10 0 6 2 10 4 10 3 0 8 -4 11 -10z
m2215 -10 c0 -5 -4 -10 -10 -10 -5 0 -10 5 -10 10 0 6 5 10 10 10 6 0 10 -4
10 -10z m-3340 -30 c0 -5 -2 -10 -4 -10 -3 0 -8 5 -11 10 -3 6 -1 10 4 10 6 0
11 -4 11 -10z m695 0 c3 -5 -1 -10 -9 -10 -9 0 -16 5 -16 10 0 6 4 10 9 10 6
0 13 -4 16 -10z m84 -3 c6 -8 8 -17 5 -20 -9 -8 -44 11 -44 23 0 15 26 12 39
-3z m-1579 -27 c0 -5 -2 -10 -4 -10 -3 0 -8 5 -11 10 -3 6 -1 10 4 10 6 0 11
-4 11 -10z m30 -19 c0 -5 -9 -11 -20 -14 -22 -6 -28 8 -7 16 19 8 27 8 27 -2z
m920 -1 c0 -5 -7 -10 -15 -10 -8 0 -15 5 -15 10 0 6 7 10 15 10 8 0 15 -4 15
-10z m-862 -55 c0 -14 -4 -25 -9 -25 -5 0 -9 11 -9 25 0 14 4 25 9 25 5 0 9
-11 9 -25z m977 5 c3 -5 1 -10 -4 -10 -6 0 -11 5 -11 10 0 6 2 10 4 10 3 0 8
-4 11 -10z m1575 -6 c0 -8 -4 -12 -10 -9 -5 3 -10 10 -10 16 0 5 5 9 10 9 6 0
10 -7 10 -16z m-2750 -39 c0 -8 -4 -15 -10 -15 -5 0 -10 7 -10 15 0 8 5 15 10
15 6 0 10 -7 10 -15z m1350 -5 c0 -5 -4 -10 -10 -10 -5 0 -10 5 -10 10 0 6 5
10 10 10 6 0 10 -4 10 -10z m995 -20 c3 -5 1 -10 -4 -10 -6 0 -11 5 -11 10 0
6 2 10 4 10 3 0 8 -4 11 -10z m-1561 -21 c-3 -5 -10 -7 -15 -3 -5 3 -7 10 -3
15 3 5 10 7 15 3 5 -3 7 -10 3 -15z m299 -16 c-7 -2 -9 -11 -6 -19 3 -8 0 -14
-6 -14 -10 0 -10 13 -2 60 1 2 7 -2 14 -9 9 -10 9 -15 0 -18z m-78 7 c3 -5 -1
-10 -9 -10 -9 0 -16 5 -16 10 0 6 4 10 9 10 6 0 13 -4 16 -10z m347 -105 c0
-5 -5 -11 -11 -13 -6 -2 -11 4 -11 13 0 9 5 15 11 13 6 -2 11 -8 11 -13z
m-1013 -19 c8 -10 9 -16 1 -21 -13 -8 -30 3 -30 21 0 18 14 18 29 0z m-601
-32 c-9 -9 -21 -13 -28 -9 -14 9 5 25 30 25 12 0 12 -3 -2 -16z m1937 -26 c-9
-6 -19 -7 -22 -4 -4 3 -1 6 6 6 7 0 9 4 6 10 -4 6 1 7 11 3 15 -6 15 -7 -1
-15z m1930 12 c3 -5 1 -10 -4 -10 -6 0 -11 5 -11 10 0 6 2 10 4 10 3 0 8 -4
11 -10z m-1875 -35 c24 -14 24 -14 3 -15 -12 0 -25 5 -28 10 -3 6 -11 10 -16
10 -6 0 -3 -7 5 -16 23 -22 20 -30 -4 -9 -35 32 -6 46 40 20z m-230 -15 c0 -5
-4 -10 -10 -10 -5 0 -10 5 -10 10 0 6 5 10 10 10 6 0 10 -4 10 -10z m270 -32
c0 -6 -8 -7 -17 -4 -16 6 -16 5 1 -11 13 -13 20 -14 23 -6 3 9 11 8 29 -3 13
-9 21 -20 18 -25 -3 -5 -2 -9 3 -9 4 -1 20 -11 36 -23 l27 -23 -24 0 c-14 0
-22 4 -19 9 3 4 -4 11 -16 14 -11 3 -18 9 -15 14 3 5 -1 9 -9 9 -8 0 -26 9
-39 20 -14 10 -28 17 -31 14 -3 -3 -4 2 -2 13 2 10 4 21 4 25 1 11 31 -3 31
-14z m160 -147 c22 -15 56 -42 77 -60 21 -17 51 -41 67 -54 20 -16 24 -24 13
-24 -9 0 -14 4 -11 9 5 7 -10 12 -29 9 -5 -1 -6 3 -3 8 4 5 -3 12 -14 16 -11
3 -38 24 -60 45 -22 21 -52 47 -67 59 -16 11 -25 21 -20 21 4 0 25 -13 47 -29z
m1205 -41 c3 -5 -3 -10 -15 -10 -12 0 -18 5 -15 10 3 6 10 10 15 10 5 0 12 -4
15 -10z m-2175 -40 c0 -5 -2 -10 -4 -10 -3 0 -8 5 -11 10 -3 6 -1 10 4 10 6 0
11 -4 11 -10z m-813 -6 c-3 -3 -12 -4 -19 -1 -8 3 -5 6 6 6 11 1 17 -2 13 -5z
m43 -29 c25 -30 -21 -76 -74 -74 -16 0 -14 3 9 11 59 21 73 51 33 68 -23 9
-23 9 -2 9 12 1 27 -6 34 -14z m90 -15 c0 -5 -4 -10 -10 -10 -5 0 -10 5 -10
10 0 6 5 10 10 10 6 0 10 -4 10 -10z m178 -5 c12 -12 -6 -11 -38 1 l-35 14 34
-5 c19 -3 37 -7 39 -10z m-120 -5 c15 -1 15 -2 -1 -11 -13 -8 -22 -6 -35 7
-16 17 -16 18 1 11 10 -4 26 -7 35 -7z m-288 -32 c0 -5 -5 -6 -10 -3 -6 3 -13
-1 -16 -9 -3 -9 -10 -13 -15 -10 -6 3 -16 0 -24 -6 -19 -16 -33 -5 -28 22 4
21 9 23 49 20 24 -2 44 -8 44 -14z m497 15 c16 -6 15 -8 -6 -13 -35 -8 -107 0
-90 11 17 11 71 12 96 2z m56 0 c-7 -2 -19 -2 -25 0 -7 3 -2 5 12 5 14 0 19
-2 13 -5z m194 1 c-4 -4 -30 -9 -59 -11 -38 -2 -49 -1 -38 7 16 11 108 14 97
4z m1353 -9 c11 -13 10 -14 -4 -9 -9 3 -16 10 -16 15 0 13 6 11 20 -6z m-1866
-24 c3 -4 -10 -8 -27 -8 -18 -1 -26 1 -19 3 6 3 10 9 7 14 -3 4 4 6 15 3 11
-3 22 -8 24 -12z m729 -15 c4 -10 0 -12 -14 -9 -11 3 -19 0 -19 -6 0 -7 4 -10
9 -6 5 3 12 1 15 -4 6 -9 144 -6 176 4 23 7 60 -2 60 -15 0 -4 -8 -6 -19 -3
-10 3 -21 0 -25 -5 -7 -12 36 -24 61 -16 14 5 15 4 4 -4 -11 -8 -10 -11 5 -15
10 -3 0 -3 -23 0 -53 7 -80 -2 -64 -20 7 -10 5 -18 -9 -30 -30 -25 -53 -22
-46 6 l6 22 -11 -22 c-9 -17 -20 -22 -45 -21 -28 1 -32 4 -22 15 8 10 14 11
22 3 5 -5 15 -10 21 -10 5 0 3 5 -5 10 -13 8 -12 10 3 10 25 0 21 19 -9 32
-21 10 -27 9 -35 -3 -6 -10 -9 -10 -9 -1 0 6 -5 12 -11 12 -8 0 -8 -5 1 -15 9
-11 16 -12 25 -5 12 10 25 4 25 -12 0 -5 -4 -7 -9 -3 -5 3 -12 1 -15 -4 -4 -5
-20 -9 -38 -9 -29 1 -30 2 -12 16 18 13 17 14 -9 9 -24 -4 -31 0 -40 22 -7 14
-21 33 -31 42 -12 10 -16 21 -11 29 6 10 10 9 17 -4 12 -21 24 -20 48 4 24 24
26 24 33 6z m-1183 -6 c-20 -13 -33 -13 -25 0 3 6 14 10 23 10 15 0 15 -2 2
-10z m295 -15 c0 -27 -31 -32 -38 -6 -6 24 1 33 23 29 8 -2 15 -12 15 -23z
m-265 -4 c0 -5 -9 -11 -20 -14 -20 -5 -26 3 -13 16 9 10 33 8 33 -2z m867 3
c-3 -3 -12 -4 -19 -1 -8 3 -5 6 6 6 11 1 17 -2 13 -5z m-40 -10 c-3 -3 -12 -4
-19 -1 -8 3 -5 6 6 6 11 1 17 -2 13 -5z m-90 -30 c-3 -3 -12 -4 -19 -1 -8 3
-5 6 6 6 11 1 17 -2 13 -5z m314 -41 c-9 -15 -10 -14 -7 7 6 35 7 37 12 23 3
-7 1 -20 -5 -30z m-246 -23 c-27 -12 -43 -12 -25 0 8 5 22 9 30 9 10 0 8 -3
-5 -9z m261 -45 c2 -12 -3 -16 -17 -12 -17 5 -18 3 -7 -11 10 -12 10 -14 1 -8
-7 4 -13 3 -13 -1 0 -5 9 -14 21 -21 12 -7 19 -16 16 -19 -3 -3 -16 4 -28 15
-17 17 -20 27 -14 49 5 15 7 32 6 36 -1 5 6 4 16 -1 9 -5 18 -17 19 -27z m104
25 c0 -5 -5 -10 -11 -10 -5 0 -7 5 -4 10 3 6 8 10 11 10 2 0 4 -4 4 -10z
m-514 -15 c-11 -8 -22 -12 -25 -9 -6 6 19 24 34 24 6 -1 1 -7 -9 -15z m-46
-15 c11 -7 3 -14 -34 -29 -26 -12 -53 -21 -59 -20 -7 0 0 5 15 10 15 6 30 19
33 30 7 21 22 24 45 9z m657 -15 c-3 -18 0 -21 14 -18 10 3 31 2 46 -2 l28 -7
-28 -11 c-16 -7 -28 -15 -28 -19 1 -10 -2 -10 -43 7 -44 19 -54 35 -26 42 11
3 19 11 17 18 -3 6 2 12 10 12 10 0 13 -8 10 -22z m-795 -46 c2 -2 1 -3 -1 -2
-2 1 -10 -4 -17 -12 -9 -8 -22 -11 -32 -7 -14 6 -14 7 6 10 12 2 20 7 17 12
-3 4 2 7 10 6 8 -1 16 -4 17 -7z m638 -3 c0 -2 -7 -6 -15 -10 -8 -3 -15 -1
-15 4 0 6 7 10 15 10 8 0 15 -2 15 -4z m88 -10 c7 -4 12 -2 12 4 0 6 5 8 10 5
8 -5 8 -11 0 -20 -8 -9 -6 -17 5 -29 15 -14 15 -17 1 -22 -28 -11 -51 1 -49
24 2 16 -4 25 -22 32 -14 5 -25 11 -25 14 0 6 56 0 68 -8z m75 -16 c16 -19 16
-20 -11 -20 -35 0 -45 9 -31 27 15 18 21 17 42 -7z m-153 -1 c0 -5 4 -8 9 -4
10 6 26 -13 18 -21 -3 -3 -13 -7 -24 -8 -21 -4 -33 11 -26 31 6 16 23 18 23 2z
m-43 -44 c-8 -19 -47 -20 -47 0 0 18 16 20 23 3 3 -9 7 -7 12 5 9 22 20 14 12
-8z m-702 -25 c-3 -5 -11 -10 -16 -10 -6 0 -7 5 -4 10 3 6 11 10 16 10 6 0 7
-4 4 -10z m660 -36 c-8 -9 -15 -27 -15 -41 0 -18 -4 -24 -14 -20 -10 4 -13 1
-10 -8 8 -20 -23 -12 -42 11 -8 10 -13 13 -9 7 3 -7 2 -13 -3 -13 -4 0 -18 -9
-30 -20 -12 -12 -22 -16 -22 -10 0 8 -11 9 -30 5 -35 -8 -48 11 -31 44 14 26
57 51 48 28 -5 -13 -2 -13 24 0 17 8 41 16 55 17 13 0 24 4 24 9 0 4 7 7 15 7
8 0 15 5 15 10 0 7 7 7 20 0 18 -10 19 -13 5 -26z m1167 -96 c-12 -12 -25 -17
-32 -13 -9 6 -6 13 11 26 30 23 47 13 21 -13z m-1068 -23 c-4 -8 -10 -12 -15
-9 -11 6 -2 24 11 24 5 0 7 -7 4 -15z"/>
<path d="M610 2181 c0 -5 7 -12 16 -15 14 -5 15 -4 4 9 -14 17 -20 19 -20 6z"/>
<path d="M1480 1122 c0 -26 31 -30 50 -7 8 9 8 15 2 15 -6 0 -13 -6 -16 -12
-3 -9 -9 -7 -20 6 -16 19 -16 19 -16 -2z"/>
<path d="M2301 3885 c3 -22 -2 -27 -15 -16 -12 10 -14 8 -12 -13 2 -14 0 -23
-4 -21 -4 2 -16 -3 -26 -11 -10 -9 -13 -12 -5 -8 11 5 13 2 9 -14 -4 -14 -2
-22 7 -22 7 0 15 -4 17 -10 2 -8 28 -16 61 -19 4 -1 7 -10 7 -20 0 -11 4 -23
10 -26 5 -3 14 -24 20 -46 9 -33 15 -40 33 -37 27 3 137 -105 137 -135 0 -34
18 -7 24 37 7 45 26 63 109 105 25 13 31 25 30 59 -1 7 5 11 11 9 9 -4 11 3 8
19 -2 13 0 30 6 37 5 7 6 21 1 32 -7 18 -8 18 -8 2 -1 -10 -6 -15 -11 -12 -13
8 -42 -14 -35 -25 3 -5 0 -12 -6 -16 -7 -4 -9 -3 -6 3 4 6 -5 15 -19 22 -20 9
-25 9 -21 -1 2 -7 9 -12 15 -11 6 2 9 -4 5 -12 -4 -12 -9 -13 -19 -4 -8 6 -14
8 -14 3 0 -4 -5 -3 -12 4 -14 14 -32 16 -24 3 8 -12 -20 -22 -41 -14 -11 5
-14 3 -8 -6 6 -10 3 -11 -14 -2 -14 8 -21 8 -21 1 0 -6 -16 5 -35 24 -33 33
-40 35 -35 11 1 -5 -8 -1 -19 9 -11 10 -19 22 -16 26 6 10 -32 40 -41 32 -4
-4 -4 -2 0 5 3 6 -5 24 -19 40 -14 15 -25 24 -24 18z"/>
<path d="M1305 3831 c-3 -6 0 -11 7 -11 8 0 6 -5 -5 -11 -9 -5 -21 -8 -26 -5
-5 3 -11 -1 -15 -9 -3 -8 -12 -15 -21 -15 -8 0 -15 -7 -15 -15 0 -9 -12 -21
-27 -28 -35 -15 -42 -46 -14 -54 12 -3 21 -9 21 -14 0 -5 7 -9 16 -9 8 0 13 4
9 9 -3 5 0 13 6 17 8 4 9 3 5 -5 -4 -6 0 -14 11 -18 10 -4 23 -13 29 -21 9
-12 15 -12 34 -2 l22 12 -21 22 c-17 16 -24 18 -30 8 -5 -9 -11 -6 -19 13 -6
14 -17 25 -24 25 -7 0 -2 7 10 16 12 8 26 13 30 10 5 -3 9 1 9 8 0 8 -6 12
-14 9 -8 -3 -11 0 -8 8 3 8 16 15 30 15 15 1 22 -2 18 -9 -3 -6 -1 -7 6 -3 6
4 8 13 4 19 -4 7 -8 18 -9 25 -3 20 -11 25 -19 13z"/>
<path d="M1285 3709 c-11 -16 -1 -19 13 -3 7 8 8 14 3 14 -5 0 -13 -5 -16 -11z"/>
<path d="M1890 3706 c0 -2 7 -7 16 -10 8 -3 12 -2 9 4 -6 10 -25 14 -25 6z"/>
<path d="M1147 3689 c6 -6 9 -19 6 -28 -4 -13 -2 -13 7 2 12 19 6 37 -13 37
-8 0 -8 -3 0 -11z"/>
<path d="M787 3669 c7 -7 15 -10 18 -7 3 3 -2 9 -12 12 -14 6 -15 5 -6 -5z"/>
<path d="M1350 3670 c0 -5 5 -10 10 -10 6 0 10 5 10 10 0 6 -4 10 -10 10 -5 0
-10 -4 -10 -10z"/>
<path d="M750 3666 c0 -2 7 -7 16 -10 8 -3 12 -2 9 4 -6 10 -25 14 -25 6z"/>
<path d="M1386 3657 c3 -10 9 -15 12 -12 3 3 0 11 -7 18 -10 9 -11 8 -5 -6z"/>
<path d="M1260 3641 c0 -6 4 -13 10 -16 6 -3 7 1 4 9 -7 18 -14 21 -14 7z"/>
<path d="M1355 3640 c3 -5 8 -10 11 -10 2 0 4 5 4 10 0 6 -5 10 -11 10 -5 0
-7 -4 -4 -10z"/>
<path d="M2364 3558 c-4 -5 -3 -12 0 -15 3 -4 6 -1 6 6 0 7 4 10 9 6 5 -3 12
-2 15 3 3 5 -2 9 -10 9 -8 0 -17 -4 -20 -9z"/>
<path d="M3016 3559 c2 -4 -3 -10 -12 -13 -9 -4 -14 -12 -10 -21 3 -8 9 -22
12 -30 4 -10 0 -15 -10 -15 -9 0 -16 -4 -16 -9 0 -6 -20 -13 -45 -17 -49 -7
-57 -14 -61 -53 -1 -14 -8 -52 -15 -83 -10 -46 -10 -59 0 -72 17 -20 41 -21
41 -2 0 27 20 28 63 3 35 -20 48 -22 82 -15 22 5 44 13 49 18 6 6 23 10 38 10
15 0 28 4 28 8 0 8 150 37 183 34 42 -2 -3 64 -73 107 -33 20 -50 38 -50 51 0
14 -7 20 -22 20 -13 0 -36 8 -53 17 -16 9 -49 26 -73 39 -23 12 -36 24 -30 27
7 3 3 4 -9 4 -12 -1 -20 -4 -17 -8z"/>
<path d="M1699 3459 c-23 -14 5 -35 31 -23 20 9 20 9 2 21 -11 7 -24 8 -33 2z"/>
<path d="M547 3449 c7 -7 15 -10 18 -7 3 3 -2 9 -12 12 -14 6 -15 5 -6 -5z"/>
<path d="M1210 3381 c0 -6 4 -13 10 -16 6 -3 7 1 4 9 -7 18 -14 21 -14 7z"/>
<path d="M1660 3361 c0 -5 5 -13 10 -16 6 -3 10 -2 10 4 0 5 -4 13 -10 16 -5
3 -10 2 -10 -4z"/>
<path d="M4049 3353 c-13 -16 -12 -17 4 -4 16 13 21 21 13 21 -2 0 -10 -8 -17
-17z"/>
<path d="M4074 3322 c3 -5 0 -13 -6 -15 -8 -3 -6 -6 5 -6 19 -1 23 14 5 25 -6
4 -8 3 -4 -4z"/>
<path d="M1700 3300 c-9 -6 -10 -10 -3 -10 6 0 15 5 18 10 8 12 4 12 -15 0z"/>
<path d="M120 3290 c0 -6 -10 -15 -22 -20 -20 -9 -20 -10 -3 -8 11 2 26 -1 33
-5 7 -5 12 -3 12 3 0 7 7 10 15 6 13 -4 14 -2 5 14 -11 21 -40 28 -40 10z"/>
<path d="M1732 3272 c8 -9 7 -11 -6 -6 -19 7 -49 -14 -40 -28 4 -6 -5 -2 -20
7 -25 17 -26 17 -19 0 4 -13 3 -16 -5 -11 -7 4 -10 2 -7 -7 3 -7 19 -21 34
-30 16 -9 39 -37 50 -60 21 -43 29 -74 12 -48 -8 12 -12 12 -25 -2 -9 -8 -16
-20 -16 -26 0 -5 -5 -13 -11 -17 -16 -10 -120 -14 -114 -4 3 5 1 10 -4 12 -11
4 -40 120 -33 133 10 17 11 35 1 29 -5 -3 -9 2 -9 11 0 9 -4 13 -10 10 -5 -3
-10 -1 -10 5 0 6 -7 18 -15 26 -8 9 -15 11 -15 6 0 -16 -33 -24 -42 -10 -5 8
-8 9 -8 2 0 -6 10 -18 22 -26 13 -9 18 -19 14 -26 -5 -9 -14 -7 -33 8 -18 14
-30 17 -38 10 -6 -5 -16 -6 -20 -2 -5 4 -5 2 -2 -5 4 -6 16 -9 27 -6 12 3 20
0 20 -7 0 -7 -7 -10 -15 -6 -31 11 -39 -52 -11 -76 12 -9 17 -17 13 -18 -4 0
-2 -6 5 -14 7 -8 16 -12 21 -9 4 2 6 1 5 -4 -1 -4 3 -18 10 -29 6 -12 8 -25 4
-29 -4 -5 -1 -5 6 -1 7 4 9 12 6 18 -4 7 -2 8 5 4 6 -4 9 -12 6 -17 -4 -5 -1
-9 5 -9 6 0 8 -5 3 -12 -4 -7 -6 -25 -4 -40 1 -16 -2 -28 -8 -28 -6 0 -11 6
-12 13 0 6 -4 2 -10 -11 -5 -13 -14 -20 -20 -17 -6 4 -8 14 -5 22 4 8 1 11 -5
8 -6 -4 -8 -14 -5 -22 5 -12 1 -14 -14 -10 -13 3 -20 0 -20 -9 0 -8 -6 -11
-17 -7 -15 5 -15 3 2 -11 17 -15 18 -17 2 -12 -10 3 -16 2 -13 -3 3 -5 14 -11
25 -14 15 -3 18 0 14 17 -3 13 -1 17 4 10 4 -6 16 -10 25 -8 10 1 20 -2 24 -7
3 -5 10 -7 15 -3 5 3 15 2 22 -3 7 -5 18 -8 25 -7 6 1 21 2 33 3 12 0 17 5 13
12 -4 7 1 9 12 7 13 -3 18 -11 17 -26 -3 -28 9 -28 22 0 13 27 68 58 99 56 14
-1 23 -5 20 -9 -2 -4 3 -12 11 -19 12 -10 13 -8 10 12 -4 21 -3 22 9 5 13 -17
15 -16 45 8 26 23 29 29 19 48 -27 53 -28 58 -18 75 10 15 11 14 7 -5 -3 -13
-2 -23 1 -24 4 0 15 -2 25 -4 9 -2 17 1 17 7 0 6 -7 8 -15 4 -8 -3 -15 -1 -15
4 0 5 8 11 18 13 16 4 16 5 0 6 -10 0 -18 6 -18 11 0 6 -7 10 -15 10 -9 0 -15
9 -15 23 0 12 0 30 0 40 -1 45 3 73 12 85 8 9 5 18 -8 34 -19 21 -19 21 3 10
18 -10 21 -9 18 6 -2 9 -4 19 -4 22 -1 3 -19 5 -40 5 -31 0 -37 -2 -29 -13z
m-247 -22 c3 -5 1 -10 -4 -10 -6 0 -11 5 -11 10 0 6 2 10 4 10 3 0 8 -4 11
-10z m235 -24 c0 -3 -4 -8 -10 -11 -5 -3 -10 -1 -10 4 0 6 5 11 10 11 6 0 10
-2 10 -4z m-225 -245 c3 -5 1 -12 -5 -16 -5 -3 -10 1 -10 9 0 18 6 21 15 7z"/>
<path d="M4271 3271 c-6 -9 -9 -10 -5 -2 5 10 3 12 -7 5 -8 -5 -23 -7 -33 -5
-13 2 -17 -2 -13 -13 3 -8 1 -18 -5 -22 -6 -4 -8 -3 -5 3 4 6 0 13 -8 16 -10
4 -12 1 -8 -11 3 -9 3 -14 -2 -10 -4 4 -14 0 -22 -10 -8 -9 -12 -11 -8 -5 4 9
1 11 -9 7 -9 -3 -13 -10 -10 -15 3 -5 0 -9 -6 -9 -6 0 -8 -5 -4 -11 3 -6 2
-14 -3 -18 -7 -4 -7 -33 -1 -81 12 -94 16 -340 6 -333 -11 6 -12 -12 -6 -92 2
-21 8 -31 20 -31 11 0 14 4 8 11 -6 7 -5 16 2 23 7 7 13 17 14 24 2 7 10 33
20 58 9 25 22 69 30 97 18 70 112 272 150 323 21 29 23 59 3 83 -10 12 -18 18
-19 14 0 -4 -10 -2 -22 5 -33 18 -43 18 -57 -1z"/>
<path d="M4904 3274 c3 -9 6 -18 6 -20 0 -2 4 -4 9 -4 5 0 7 9 4 20 -3 11 -10
20 -15 20 -6 0 -7 -7 -4 -16z"/>
<path d="M1665 3260 c4 -6 11 -8 16 -5 14 9 11 15 -7 15 -8 0 -12 -5 -9 -10z"/>
<path d="M1343 3208 c1 -31 12 -37 21 -12 3 8 2 12 -3 9 -5 -3 -12 3 -14 12
-3 10 -4 6 -4 -9z"/>
<path d="M1598 3223 c7 -3 16 -2 19 1 4 3 -2 6 -13 5 -11 0 -14 -3 -6 -6z"/>
<path d="M4930 3185 c0 -8 4 -15 10 -15 5 0 7 7 4 15 -4 8 -8 15 -10 15 -2 0
-4 -7 -4 -15z"/>
<path d="M220 3175 c-6 -8 -9 -19 -5 -26 6 -8 10 -7 16 2 6 10 8 7 6 -8 0 -12
-5 -19 -9 -17 -4 3 -8 1 -8 -4 0 -15 33 -38 56 -40 28 -1 26 24 -3 37 -20 9
-29 33 -24 64 2 12 -16 8 -29 -8z"/>
<path d="M1225 3180 c-3 -5 -1 -10 4 -10 6 0 11 5 11 10 0 6 -2 10 -4 10 -3 0
-8 -4 -11 -10z"/>
<path d="M1267 3159 c3 -10 11 -15 19 -12 20 7 17 20 -5 26 -14 3 -17 0 -14
-14z"/>
<path d="M3390 3168 c0 -11 28 -10 35 1 3 6 -4 9 -15 8 -11 -1 -20 -5 -20 -9z"/>
<path d="M3445 3170 c3 -5 0 -10 -7 -10 -10 0 -9 -3 2 -11 12 -8 11 -9 -7 -4
-14 4 -29 -2 -48 -19 -22 -21 -55 -26 -55 -9 0 3 6 3 14 0 8 -3 17 0 20 8 6
17 -34 11 -45 -6 -5 -8 -8 -7 -12 2 -4 11 -6 11 -6 1 -1 -8 -6 -10 -13 -6 -9
5 -9 2 1 -9 7 -9 20 -17 28 -17 8 0 11 -5 7 -12 -5 -8 0 -9 16 -5 21 5 22 5 7
-10 -8 -9 -24 -16 -34 -18 -37 -3 -74 -25 -67 -37 6 -10 5 -10 -7 -1 -12 10
-18 10 -27 1 -9 -9 -12 -9 -12 0 0 7 1 14 3 15 1 2 -4 11 -12 20 -7 9 -11 22
-8 29 3 8 -4 13 -19 13 -21 0 -22 -2 -9 -12 10 -6 12 -14 6 -17 -5 -4 -17 4
-25 16 -9 12 -16 18 -16 13 1 -6 12 -23 26 -40 15 -16 24 -25 21 -19 -4 6 0
11 8 11 8 0 12 -4 9 -9 -3 -4 8 -25 25 -45 17 -21 31 -43 31 -49 0 -6 9 -19
20 -29 12 -10 19 -24 16 -31 -3 -8 1 -11 10 -7 10 4 12 0 7 -13 -4 -12 -3 -15
5 -10 7 4 12 2 12 -3 0 -6 -8 -11 -17 -11 -15 0 -15 -1 -1 -12 12 -11 13 -17
3 -36 l-13 -24 -16 24 -17 23 5 -27 c3 -16 0 -28 -5 -28 -5 0 -9 -7 -9 -16 0
-8 -5 -12 -10 -9 -7 4 -7 12 0 25 13 24 13 27 -4 27 -8 0 -15 -3 -14 -6 3 -28
-4 -35 -17 -17 -17 22 -20 14 -6 -13 7 -13 6 -18 -5 -18 -7 0 -14 8 -14 18 0
10 -5 21 -10 24 -6 4 -8 11 -5 16 9 14 -2 11 -19 -7 -14 -14 -14 -19 9 -52 14
-20 25 -44 25 -54 0 -10 26 -48 58 -85 32 -38 64 -78 71 -90 6 -13 17 -23 23
-23 6 0 5 6 -3 16 -11 14 -10 18 6 30 21 15 79 34 107 34 11 0 15 5 12 14 -3
8 7 18 25 26 17 7 31 16 31 21 0 5 12 9 28 9 20 1 33 10 50 36 25 40 27 50 10
60 -6 4 -8 3 -4 -4 3 -6 2 -13 -4 -17 -5 -3 -10 1 -10 9 0 8 5 18 11 21 7 5 4
14 -7 26 -16 18 -16 19 -1 13 10 -3 17 -1 17 5 0 6 -6 11 -14 11 -7 0 -16 9
-19 20 -3 11 -2 20 1 20 9 0 6 124 -4 174 -8 45 -28 87 -40 87 -5 -1 -9 8 -9
18 -1 10 -7 27 -15 37 -13 16 -13 17 0 9 13 -8 13 -7 1 9 -11 13 -16 14 -22 4
-7 -10 -9 -9 -9 5 0 9 -5 17 -11 17 -5 0 -7 -4 -4 -10z m-30 -51 c11 -16 1
-19 -13 -3 -7 8 -8 14 -3 14 5 0 13 -5 16 -11z m-18 -31 c-3 -8 -6 -5 -6 6 -1
11 2 17 5 13 3 -3 4 -12 1 -19z m43 -8 c0 -5 -5 -10 -11 -10 -5 0 -7 5 -4 10
3 6 8 10 11 10 2 0 4 -4 4 -10z m-280 -343 c0 -20 0 -20 -14 -2 -8 11 -12 23
-9 28 8 13 23 -3 23 -26z"/>
<path d="M3214 3092 c4 -7 1 -15 -9 -18 -13 -5 -12 -9 7 -25 24 -22 33 -17 43
24 5 17 3 27 -4 27 -6 0 -8 -8 -4 -17 6 -16 3 -15 -17 2 -13 11 -20 14 -16 7z
m26 -26 c0 -11 -19 -15 -25 -6 -3 5 1 10 9 10 9 0 16 -2 16 -4z"/>
<path d="M4910 3081 c0 -6 4 -13 10 -16 6 -3 7 1 4 9 -7 18 -14 21 -14 7z"/>
<path d="M3280 3070 c-8 -5 -10 -10 -5 -10 6 0 17 5 25 10 8 5 11 10 5 10 -5
0 -17 -5 -25 -10z"/>
<path d="M4881 3044 c0 -11 3 -14 6 -6 3 7 2 16 -1 19 -3 4 -6 -2 -5 -13z"/>
<path d="M4900 3051 c0 -6 4 -13 10 -16 6 -3 7 1 4 9 -7 18 -14 21 -14 7z"/>
<path d="M1810 2979 c0 -5 5 -7 10 -4 6 3 10 8 10 11 0 2 -4 4 -10 4 -5 0 -10
-5 -10 -11z"/>
<path d="M1650 2842 c-6 -2 -8 -8 -5 -12 3 -5 1 -11 -5 -15 -5 -3 -10 -1 -10
4 0 6 -13 11 -29 11 -24 0 -28 -3 -24 -20 4 -13 9 -17 17 -12 6 5 28 9 48 8
20 -1 34 2 31 7 -2 4 7 6 21 3 15 -3 26 0 26 6 0 7 6 6 15 -2 12 -10 16 -9 21
4 3 9 11 13 18 9 6 -3 7 -2 3 2 -7 9 -106 14 -127 7z"/>
<path d="M4510 2846 c0 -2 8 -10 18 -17 15 -13 16 -12 3 4 -13 16 -21 21 -21
13z"/>
<path d="M1007 2806 c-4 -10 -1 -13 8 -9 8 3 12 9 9 14 -7 12 -11 11 -17 -5z"/>
<path d="M1110 2794 c0 -3 7 -12 15 -20 13 -13 15 -13 15 -1 0 8 -7 17 -15 21
-8 3 -15 3 -15 0z"/>
<path d="M2532 2784 c-7 -8 -8 -14 -2 -14 14 0 13 -13 -5 -36 -15 -18 -15 -18
-8 0 4 13 3 17 -5 12 -7 -4 -12 -14 -12 -23 0 -9 -3 -13 -6 -10 -4 4 -15 -3
-26 -15 -22 -26 -12 -34 39 -32 70 3 81 22 53 89 -5 11 -10 25 -12 32 -2 7 -7
7 -16 -3z"/>
<path d="M1606 2765 c-3 -8 -1 -15 4 -15 6 0 10 7 10 15 0 8 -2 15 -4 15 -2 0
-6 -7 -10 -15z"/>
<path d="M2327 2758 c2 -5 -3 -8 -13 -8 -13 0 -11 -5 10 -25 25 -23 36 -42 17
-30 -5 3 -12 1 -16 -4 -3 -6 -12 -8 -19 -5 -8 3 -16 2 -19 -3 -3 -4 17 -9 45
-9 41 -1 48 1 43 15 -5 13 -4 14 6 4 18 -18 42 -16 35 2 -3 8 0 15 7 15 8 0 6
4 -3 10 -12 8 -12 10 -1 10 10 0 11 3 2 13 -6 8 -9 16 -7 18 3 2 -17 4 -44 4
-26 0 -46 -3 -43 -7z m37 -23 c3 -8 2 -15 -3 -15 -5 0 -14 7 -21 15 -10 12
-10 15 3 15 8 0 17 -7 21 -15z"/>
<path d="M4544 2748 c-4 -7 -4 -10 1 -6 4 4 15 2 24 -5 14 -11 14 -10 2 6 -16
20 -18 21 -27 5z"/>
<path d="M1030 2729 c0 -5 5 -7 10 -4 6 3 10 8 10 11 0 2 -4 4 -10 4 -5 0 -10
-5 -10 -11z"/>
<path d="M1720 2730 c0 -5 5 -10 11 -10 5 0 7 5 4 10 -3 6 -8 10 -11 10 -2 0
-4 -4 -4 -10z"/>
<path d="M2063 2713 c-20 -8 -15 -19 10 -20 12 0 16 1 9 4 -6 3 -10 9 -6 14 6
10 5 10 -13 2z"/>
<path d="M4535 2710 c3 -5 8 -10 11 -10 2 0 4 5 4 10 0 6 -5 10 -11 10 -5 0
-7 -4 -4 -10z"/>
<path d="M4575 2650 c3 -5 8 -10 11 -10 2 0 4 5 4 10 0 6 -5 10 -11 10 -5 0
-7 -4 -4 -10z"/>
<path d="M4056 2589 c-18 -20 -31 -27 -36 -20 -4 7 -11 1 -18 -14 -7 -16 -17
-23 -24 -19 -7 4 -8 3 -4 -5 7 -11 -62 -91 -79 -91 -4 0 -13 -7 -19 -15 -6 -9
-24 -17 -40 -19 -15 -2 -31 -9 -36 -15 -5 -9 -11 -3 -18 18 -6 17 -14 31 -18
31 -3 0 -3 -7 0 -16 5 -12 2 -15 -11 -10 -17 6 -17 5 -1 -7 10 -8 14 -18 8
-26 -6 -11 -11 -8 -20 10 -7 13 -22 31 -34 40 -17 14 -19 20 -8 40 12 22 12
22 8 2 -3 -16 2 -22 22 -26 23 -4 24 -3 10 7 -9 7 -20 25 -24 40 -4 15 -9 24
-13 19 -3 -5 -15 -13 -26 -17 -16 -6 -17 -9 -5 -17 11 -8 10 -9 -7 -4 -21 6
-27 -1 -25 -26 1 -3 -5 -6 -13 -6 -8 0 -11 5 -8 11 3 7 1 6 -7 -1 -13 -12 -5
-37 10 -28 5 3 11 1 14 -4 10 -15 -21 -6 -41 12 -13 11 -23 13 -33 6 -12 -8
-12 -9 4 -7 10 2 21 -3 24 -11 3 -9 0 -11 -9 -7 -8 4 -6 1 4 -7 10 -8 14 -18
9 -21 -5 -3 -18 3 -30 14 -12 11 -23 16 -27 11 -3 -5 4 -12 15 -16 21 -7 26
-20 11 -29 -5 -3 -14 1 -21 9 -7 8 -20 15 -30 15 -13 0 -17 6 -14 23 2 12 2
16 -2 10 -3 -7 -10 -13 -15 -13 -6 0 -7 5 -3 12 4 7 3 8 -4 4 -17 -10 -9 -44
13 -60 18 -13 32 -51 14 -40 -5 3 -7 10 -4 15 4 5 -2 9 -12 9 -13 -1 -8 -10
22 -35 22 -18 42 -31 45 -28 3 3 -1 8 -7 10 -16 6 -17 53 -1 53 6 0 9 -3 5 -6
-23 -24 76 -106 106 -88 8 5 7 2 -2 -9 -12 -15 -11 -17 3 -17 24 0 86 -49 86
-68 0 -9 22 -39 50 -67 27 -27 51 -59 52 -70 6 -35 17 -46 37 -35 10 5 21 7
24 4 7 -7 107 27 107 36 0 5 -8 10 -17 12 -14 2 -17 12 -14 49 2 40 -1 47 -18
52 -22 5 -30 29 -8 25 7 -2 11 5 9 17 -2 13 0 16 5 8 8 -11 56 -33 73 -33 5 0
8 10 7 23 -2 29 24 140 35 148 10 7 39 140 32 150 -2 4 1 20 7 36 24 60 22 82
-6 93 -32 12 -25 15 -59 -21z m-330 -238 c-4 -5 0 -12 6 -14 8 -3 6 -6 -4 -6
-18 -1 -24 10 -11 22 9 10 15 8 9 -2z m-56 -61 c0 -5 -2 -10 -4 -10 -3 0 -8 5
-11 10 -3 6 -1 10 4 10 6 0 11 -4 11 -10z m274 -166 c9 -23 7 -36 -3 -30 -12
8 -21 46 -11 46 4 0 11 -7 14 -16z m12 -71 c-10 -10 -19 5 -10 18 6 11 8 11
12 0 2 -7 1 -15 -2 -18z"/>
<path d="M4218 2586 c-10 -7 -18 -20 -18 -29 0 -13 6 -14 29 -7 29 8 41 5 41
-12 0 -5 -6 -6 -12 -2 -7 4 -9 3 -5 -1 7 -8 23 -13 57 -19 9 -1 22 -6 29 -11
25 -15 79 -14 77 1 -1 7 -6 17 -11 21 -4 4 -5 2 -1 -4 4 -8 1 -13 -8 -13 -8 0
-19 12 -25 28 -7 15 -10 18 -8 6 4 -17 0 -20 -27 -18 -17 1 -37 3 -44 3 -7 1
-11 5 -7 10 9 15 -33 33 -57 25 -21 -6 -21 -6 -5 10 27 27 23 34 -5 12z"/>
<path d="M4251 2597 c2 -1 15 -11 29 -22 l25 -20 -19 23 c-11 12 -24 22 -29
22 -6 0 -8 -1 -6 -3z"/>
<path d="M4315 2550 c-4 -6 3 -10 14 -10 25 0 27 6 6 13 -8 4 -17 2 -20 -3z"/>
<path d="M4388 2553 c6 -2 18 -2 25 0 6 3 1 5 -13 5 -14 0 -19 -2 -12 -5z"/>
<path d="M4570 2549 c0 -5 -6 -7 -12 -3 -10 5 -10 4 -1 -6 20 -22 41 -21 36 1
-6 20 -23 26 -23 8z"/>
<path d="M4440 2525 c-7 -9 -8 -15 -2 -15 5 0 12 7 16 15 3 8 4 15 2 15 -2 0
-9 -7 -16 -15z"/>
<path d="M4210 2526 c0 -2 7 -7 16 -10 8 -3 12 -2 9 4 -6 10 -25 14 -25 6z"/>
<path d="M4533 2513 c-7 -3 -13 -9 -13 -15 0 -5 6 -8 13 -5 6 2 18 -3 25 -12
11 -13 11 -12 1 9 -14 30 -12 28 -26 23z"/>
<path d="M4424 2478 c-3 -4 2 -8 10 -8 8 0 17 4 20 8 3 5 -2 9 -10 9 -8 0 -17
-4 -20 -9z"/>
<path d="M2300 2474 c0 -6 7 -19 15 -30 8 -10 14 -14 14 -9 0 6 -6 19 -14 29
-8 11 -15 15 -15 10z"/>
<path d="M4206 2465 c-3 -9 -10 -13 -16 -10 -17 10 -11 -2 8 -16 9 -7 14 -9
10 -5 -4 5 -3 15 4 23 6 7 9 16 6 19 -3 3 -8 -2 -12 -11z"/>
<path d="M2346 2462 c-3 -5 1 -17 8 -27 12 -17 13 -17 11 3 -2 26 -11 37 -19
24z"/>
<path d="M3443 2455 c-10 -11 -9 -13 6 -12 11 1 17 7 14 14 -6 16 -5 16 -20
-2z"/>
<path d="M4120 2456 c0 -2 7 -9 15 -16 13 -11 14 -10 9 4 -5 14 -24 23 -24 12z"/>
<path d="M4246 2451 c-3 -5 2 -15 12 -22 15 -12 16 -12 5 2 -7 9 -10 19 -6 22
3 4 4 7 0 7 -3 0 -8 -4 -11 -9z"/>
<path d="M4390 2451 c0 -6 4 -13 10 -16 6 -3 7 1 4 9 -7 18 -14 21 -14 7z"/>
<path d="M4510 2456 c0 -2 8 -10 18 -17 15 -13 16 -12 3 4 -13 16 -21 21 -21
13z"/>
<path d="M4546 2448 c3 -4 11 -5 19 -1 21 7 19 12 -4 10 -11 0 -18 -5 -15 -9z"/>
<path d="M3517 2433 c3 -7 9 -10 14 -7 14 8 11 21 -5 21 -8 0 -12 -6 -9 -14z"/>
<path d="M4170 2426 c0 -2 7 -7 16 -10 8 -3 12 -2 9 4 -6 10 -25 14 -25 6z"/>
<path d="M4244 2409 c9 -14 13 -29 9 -34 -5 -4 -3 -5 3 -2 7 4 14 1 17 -7 9
-22 -5 -27 -25 -9 -10 9 -21 13 -25 10 -3 -4 -12 -2 -19 4 -11 9 -15 7 -20 -6
-5 -13 -9 -14 -15 -3 -5 7 -9 8 -9 2 0 -6 10 -19 22 -30 15 -13 18 -14 10 -3
-10 14 -10 18 2 22 9 4 18 2 22 -4 3 -6 12 -8 19 -5 14 5 39 -17 29 -27 -3 -3
4 -11 16 -17 18 -10 21 -9 15 1 -6 9 -3 11 9 6 11 -4 15 -3 11 4 -4 6 -12 8
-19 6 -7 -3 -13 4 -13 15 -2 15 1 17 12 8 16 -14 27 1 14 20 -7 13 -9 13 -9 1
0 -8 -3 -11 -7 -7 -5 4 -8 11 -8 15 0 3 -13 20 -29 36 -26 27 -27 28 -12 4z"/>
<path d="M2376 2412 c-3 -5 1 -9 9 -9 8 0 12 4 9 9 -3 4 -7 8 -9 8 -2 0 -6 -4
-9 -8z"/>
<path d="M3436 2412 c-3 -6 -1 -14 5 -17 14 -9 20 -2 10 14 -6 8 -11 9 -15 3z"/>
<path d="M3380 2405 c0 -2 10 -10 23 -16 20 -11 21 -11 8 4 -13 16 -31 23 -31
12z"/>
<path d="M4167 2396 c-4 -10 -1 -13 8 -9 8 3 12 9 9 14 -7 12 -11 11 -17 -5z"/>
<path d="M4126 2380 c-18 -18 -18 -19 3 -13 12 3 21 12 21 19 0 17 -1 17 -24
-6z"/>
<path d="M4555 2371 c-3 -5 -2 -12 3 -15 5 -3 9 1 9 9 0 17 -3 19 -12 6z"/>
<path d="M4320 2366 c0 -2 8 -10 18 -17 15 -13 16 -12 3 4 -13 16 -21 21 -21
13z"/>
<path d="M2390 2334 c0 -8 5 -12 10 -9 6 4 8 11 5 16 -9 14 -15 11 -15 -7z"/>
<path d="M4362 2334 c1 -12 10 -21 22 -22 15 -1 17 1 7 7 -7 5 -17 15 -22 22
-6 10 -8 8 -7 -7z"/>
<path d="M4570 2325 c0 -8 4 -15 10 -15 5 0 7 7 4 15 -4 8 -8 15 -10 15 -2 0
-4 -7 -4 -15z"/>
<path d="M4150 2321 c0 -5 7 -12 16 -15 14 -5 15 -4 4 9 -14 17 -20 19 -20 6z"/>
<path d="M4215 2310 c3 -5 8 -10 11 -10 2 0 4 5 4 10 0 6 -5 10 -11 10 -5 0
-7 -4 -4 -10z"/>
<path d="M4113 2295 c4 -4 0 -19 -9 -33 -9 -13 -11 -21 -5 -18 12 8 46 -21 46
-37 0 -6 6 -12 13 -14 14 -5 16 13 2 22 -5 3 -10 13 -10 21 0 9 5 12 12 8 7
-4 8 -3 4 5 -6 8 -12 9 -20 2 -7 -6 -16 -8 -19 -4 -10 10 -8 35 2 29 5 -3 14
1 21 9 9 10 9 15 1 15 -6 0 -11 -5 -11 -11 0 -8 -6 -7 -17 2 -10 7 -15 9 -10
4z"/>
<path d="M2960 2275 c0 -6 6 -17 13 -24 10 -12 8 -13 -8 -7 -17 5 -16 3 5 -15
24 -20 24 -21 3 -16 -20 4 -21 2 -12 -14 5 -10 19 -19 30 -19 11 0 17 5 14 10
-4 6 -12 7 -18 3 -9 -5 -9 -3 0 8 10 12 10 18 1 27 -16 16 4 15 22 0 8 -7 6
-2 -5 11 l-20 24 23 -12 c12 -6 22 -18 22 -26 0 -8 7 -15 15 -15 8 0 15 8 15
17 0 9 -3 13 -6 10 -4 -4 -21 5 -38 19 -20 18 -32 22 -34 14 -3 -9 -7 -9 -13
1 -5 8 -9 9 -9 4z"/>
<path d="M4530 2256 c0 -8 4 -17 9 -20 5 -4 7 3 4 14 -6 23 -13 26 -13 6z"/>
<path d="M4250 2230 c-9 -6 -10 -10 -3 -10 6 0 15 5 18 10 8 12 4 12 -15 0z"/>
<path d="M4492 2231 c-11 -7 -11 -9 0 -14 9 -3 15 1 15 9 0 8 -1 14 -1 14 -1
0 -7 -4 -14 -9z"/>
<path d="M4115 2210 c-3 -5 -1 -10 4 -10 6 0 11 5 11 10 0 6 -2 10 -4 10 -3 0
-8 -4 -11 -10z"/>
<path d="M4275 2210 c-3 -6 1 -7 9 -4 18 7 21 14 7 14 -6 0 -13 -4 -16 -10z"/>
<path d="M2923 2193 c-17 -6 25 -84 50 -91 13 -3 15 -7 7 -12 -15 -9 -4 -30
16 -30 8 0 14 -6 14 -14 0 -15 21 -26 52 -26 14 0 18 -5 14 -16 -3 -8 -2 -12
4 -9 6 3 10 12 10 19 0 7 10 18 23 25 l22 12 -22 -5 c-29 -5 -42 14 -15 21 12
3 18 11 15 19 -4 10 -9 8 -23 -9 -12 -14 -15 -26 -9 -33 7 -8 1 -11 -17 -11
-14 0 -22 2 -17 6 15 9 35 52 29 59 -3 3 -6 1 -6 -5 0 -6 -8 -9 -19 -6 -10 3
-22 0 -25 -6 -4 -6 -1 -9 6 -8 7 2 10 2 5 0 -4 -3 -4 -10 0 -16 4 -7 -1 -6
-10 2 -9 7 -15 17 -12 21 3 5 1 11 -5 15 -5 3 -10 12 -10 18 0 7 4 6 10 -3 6
-9 10 -10 10 -3 0 6 -4 15 -10 18 -5 3 -10 15 -10 26 0 12 -7 19 -20 19 -14 0
-18 -5 -14 -17 5 -15 4 -15 -4 -3 -6 8 -9 17 -6 21 6 10 -19 27 -33 22z"/>
<path d="M4113 2169 c-1 -13 8 -21 30 -27 19 -5 35 -5 38 1 4 5 9 5 12 -2 3
-7 5 -7 3 1 -2 7 -7 13 -12 13 -5 1 -23 8 -39 17 -29 16 -31 15 -32 -3z m37
-9 c8 -5 11 -10 5 -10 -5 0 -17 5 -25 10 -8 5 -10 10 -5 10 6 0 17 -5 25 -10z"/>
<path d="M4066 2158 c3 -4 12 -8 20 -8 8 0 14 4 14 8 0 4 -9 8 -19 8 -11 0
-17 -4 -15 -8z"/>
<path d="M4245 2159 c-4 -6 -5 -12 -2 -15 2 -3 7 2 10 11 7 17 1 20 -8 4z"/>
<path d="M3030 2006 c0 -2 7 -9 15 -16 9 -7 15 -8 15 -2 0 5 -7 12 -15 16 -8
3 -15 4 -15 2z"/>
<path d="M3109 1963 c-12 -16 -12 -17 2 -6 9 7 18 10 21 7 3 -3 9 -1 13 5 11
18 -22 12 -36 -6z"/>
<path d="M3110 1930 c0 -5 7 -7 15 -4 8 4 15 8 15 10 0 2 -7 4 -15 4 -8 0 -15
-4 -15 -10z"/>
</g>
</svg>
